<?xml version="1.0" encoding="UTF-8"?>
<!DOCTYPE svg PUBLIC "-//W3C//DTD SVG 1.1//EN" "http://www.w3.org/Graphics/SVG/1.1/DTD/svg11.dtd">
<!-- Source: https://github.com/ -->
<svg xmlns="http://www.w3.org/2000/svg" version="1.1" viewBox="0 -20 1600 1600">
	<path fill="#000000" d="M800,0C358,0,0,358,0,800c0,354,229,653,547,759c40,7,55,-17,55,-38c0,-19,-1,-82,-1,-149c-201,37,-253,-49,-269,-94c-9,-23,-48,-94,-82,-113c-28,-15,-68,-52,-1,-53c63,-1,108,58,123,82c72,121,187,87,233,66c7,-52,28,-87,51,-107c-178,-20,-364,-89,-364,-395c0,-87,31,-159,82,-215c-8,-20,-36,-102,8,-212c0,0,67,-21,220,82c64,-18,132,-27,200,-27c68,0,136,9,200,27c153,-104,220,-82,220,-82c44,110,16,192,8,212c51,56,82,127,82,215c0,307,-187,375,-365,395c29,25,54,73,54,148c0,107,-1,193,-1,220c0,21,15,46,55,38A801.3,801.3,0,0,0,1600,800c0,-442,-358,-800,-800,-800z"/>
</svg>
